<svg xmlns="http://www.w3.org/2000/svg" id="Layer_1" viewBox="0 0 666.83 256.04"><defs><style>.cls-1{fill:#c42127;}.cls-1,.cls-2{stroke-width:0px;}.cls-2{fill:#fff;}</style></defs><polygon class="cls-1" points="228.86 105.47 221.03 112.21 134.98 6.85 142.81 .1 228.86 105.47"></polygon><polygon class="cls-1" points="202.8 105.39 194.99 112.11 108.92 6.74 116.75 0 202.8 105.39"></polygon><polygon class="cls-1" points="666.83 239.13 666.83 256.04 0 256.04 0 239.13 26.42 239.13 26.42 96.14 12.85 112.69 5.02 105.95 91.32 .66 176.76 105.29 168.95 112.03 91.3 16.96 36.74 83.56 36.74 239.13 666.83 239.13"></polygon><rect class="cls-1" x="72.21" y="63.89" width="19.56" height="23.01"></rect><rect class="cls-1" x="95.46" y="63.89" width="19.56" height="23.01"></rect><rect class="cls-1" x="72.21" y="90.59" width="19.56" height="23.01"></rect><rect class="cls-1" x="95.47" y="90.59" width="19.56" height="23.01"></rect><path class="cls-2" d="m57.79,219.89h-7.62l-1.61,4.81h-4.21l7.2-19.71h4.93l7.2,19.71h-4.27l-1.61-4.81Zm-1.02-3.05l-1.88-5.56-.9-2.99h-.06l-.84,2.93-1.88,5.62h5.56Z"></path><path class="cls-2" d="m70.21,219.95c0,1.4.36,1.91,1.46,1.91.69,0,1.11-.09,1.76-.33l-.36,2.84c-.66.39-1.79.63-2.78.63-2.9,0-4.18-1.34-4.18-4.45v-17.32h4.09v16.72Z"></path><path class="cls-2" d="m101.68,214.27v10.42h-3.02l-.09-2.36c-1.14,1.67-3.05,2.66-5.82,2.66-5.41,0-9.14-3.7-9.14-10.13s3.73-10.18,9.59-10.18c4.27,0,6.84,1.49,8.39,4.84l-3.79,1.64c-.63-2.09-2.3-3.11-4.48-3.11-3.37,0-5.44,2.39-5.44,6.78s1.88,6.84,5.53,6.84c2.66,0,4.72-1.28,4.72-3.91v-.45h-5.76v-3.05h9.32Z"></path><path class="cls-2" d="m120.04,214.9v9.79h-4.09v-8.6c0-2.57-1.11-3.4-2.66-3.4-1.73,0-3.43,1.13-3.43,4.12v7.88h-4.09v-21.47h4.09v9.08c.96-1.91,2.69-2.84,4.81-2.84,3.11,0,5.38,1.82,5.38,5.44Z"></path><path class="cls-2" d="m138.9,222.1l-.3,2.48c-.54.27-1.19.42-1.94.42-1.79,0-3.02-.63-3.43-2.24-.9,1.46-2.78,2.24-5.29,2.24-2.84,0-4.63-1.31-4.63-3.82,0-2.33,1.82-3.97,5.82-4.72l3.59-.69v-.72c0-1.58-.93-2.6-2.54-2.6-1.73,0-2.99.66-3.44,2.54l-3.25-1.37c.63-2.54,2.87-4.15,6.51-4.15,4.15,0,6.78,1.79,6.78,5.5v6.12c0,.78.33,1.14,1.11,1.14.36,0,.72-.03,1.02-.12Zm-6.18-2.27v-1.55l-3.2.72c-1.31.3-2,.78-2,1.76s.63,1.46,1.7,1.46c1.55,0,3.49-.81,3.49-2.39Z"></path><path class="cls-2" d="m151.44,209.79l-.51,3.58c-.42-.27-1.11-.45-1.88-.45-1.79,0-3.58,1.31-3.58,4.03v7.73h-4.09v-14.93h3.55l.27,2.93c.78-2.06,2.3-3.23,4.63-3.23.66,0,1.26.12,1.61.33Z"></path><path class="cls-2" d="m168.37,222.1l-.3,2.48c-.54.27-1.19.42-1.94.42-1.79,0-3.02-.63-3.43-2.24-.9,1.46-2.78,2.24-5.29,2.24-2.84,0-4.63-1.31-4.63-3.82,0-2.33,1.82-3.97,5.82-4.72l3.58-.69v-.72c0-1.58-.92-2.6-2.54-2.6-1.73,0-2.99.66-3.43,2.54l-3.26-1.37c.63-2.54,2.87-4.15,6.51-4.15,4.15,0,6.78,1.79,6.78,5.5v6.12c0,.78.33,1.14,1.1,1.14.36,0,.72-.03,1.02-.12Zm-6.18-2.27v-1.55l-3.2.72c-1.31.3-2,.78-2,1.76s.63,1.46,1.7,1.46c1.55,0,3.49-.81,3.49-2.39Z"></path><path class="cls-2" d="m175.74,209.76h4.72v3.05h-4.54v11.89h-4.09v-11.89h-2.6v-3.05h2.6v-1.79c0-3.37,2.3-5.05,5.64-5.05,1.34,0,2.48.3,3.11.78l-.57,2.72c-.45-.3-.96-.45-1.7-.45-1.61,0-2.57.66-2.57,2.3v1.49Z"></path><path class="cls-2" d="m197,222.1l-.3,2.48c-.54.27-1.19.42-1.94.42-1.79,0-3.02-.63-3.43-2.24-.9,1.46-2.78,2.24-5.29,2.24-2.84,0-4.63-1.31-4.63-3.82,0-2.33,1.82-3.97,5.82-4.72l3.58-.69v-.72c0-1.58-.92-2.6-2.54-2.6-1.73,0-2.99.66-3.43,2.54l-3.26-1.37c.63-2.54,2.87-4.15,6.51-4.15,4.15,0,6.78,1.79,6.78,5.5v6.12c0,.78.33,1.14,1.1,1.14.36,0,.72-.03,1.02-.12Zm-6.18-2.27v-1.55l-3.2.72c-1.31.3-2,.78-2,1.76s.63,1.46,1.7,1.46c1.55,0,3.49-.81,3.49-2.39Z"></path><path class="cls-2" d="m223.57,208.3h-6.6v16.4h-4.12v-16.4h-6.63v-3.32h17.35v3.32Z"></path><path class="cls-2" d="m234.61,209.79l-.51,3.58c-.42-.27-1.11-.45-1.88-.45-1.79,0-3.58,1.31-3.58,4.03v7.73h-4.09v-14.93h3.55l.27,2.93c.78-2.06,2.3-3.23,4.63-3.23.66,0,1.26.12,1.61.33Z"></path><path class="cls-2" d="m251.54,222.1l-.3,2.48c-.54.27-1.19.42-1.94.42-1.79,0-3.02-.63-3.43-2.24-.9,1.46-2.78,2.24-5.29,2.24-2.84,0-4.63-1.31-4.63-3.82,0-2.33,1.82-3.97,5.82-4.72l3.58-.69v-.72c0-1.58-.92-2.6-2.54-2.6-1.73,0-2.99.66-3.43,2.54l-3.26-1.37c.63-2.54,2.87-4.15,6.51-4.15,4.15,0,6.78,1.79,6.78,5.5v6.12c0,.78.33,1.14,1.1,1.14.36,0,.72-.03,1.02-.12Zm-6.18-2.27v-1.55l-3.2.72c-1.31.3-2,.78-2,1.76s.63,1.46,1.7,1.46c1.55,0,3.49-.81,3.49-2.39Z"></path><path class="cls-2" d="m268.4,203.22v21.47h-3.64l-.18-2.69c-.87,1.79-2.63,2.99-4.93,2.99-3.97,0-6.39-2.87-6.39-7.74s2.45-7.79,6.39-7.79c2.18,0,3.79,1.07,4.66,2.72v-8.96h4.09Zm-4.09,14.87v-1.73c-.21-2.39-1.46-3.76-3.43-3.76-2.18,0-3.49,1.58-3.49,4.63s1.31,4.63,3.49,4.63c1.94,0,3.23-1.31,3.43-3.76Z"></path><path class="cls-2" d="m272.25,205.43c0-1.46.84-2.21,2.54-2.21s2.54.75,2.54,2.21-.84,2.18-2.54,2.18-2.54-.72-2.54-2.18Zm4.57,19.26h-4.09v-14.93h4.09v14.93Z"></path><path class="cls-2" d="m295.42,214.9v9.79h-4.09v-8.6c0-2.57-1.11-3.4-2.66-3.4-1.73,0-3.44,1.13-3.44,4.12v7.88h-4.09v-14.93h3.67l.15,2.66c.99-2,2.84-2.96,5.08-2.96,3.11,0,5.38,1.82,5.38,5.44Z"></path><path class="cls-2" d="m313.81,226.04c0,3.26-3.34,5.08-8.03,5.08-5.14,0-7.35-1.49-7.35-3.67,0-1.31.9-2.39,2.72-2.84-1.22-.54-2.21-1.52-2.21-2.99s.96-2.51,2.39-3.02c-1.55-.87-2.36-2.27-2.36-4.06,0-3.14,2.63-5.08,6.87-5.08,1.11,0,2.12.12,2.99.39.48-2.21,1.85-3.76,4.54-3.64l.54,2.93c-1.88-.18-3.05.42-3.49,1.4,1.46.87,2.27,2.24,2.27,4,0,3.1-2.6,5.05-6.84,5.05-.99,0-1.88-.09-2.69-.27-.87.21-1.19.66-1.19,1.34,0,.8.66,1.22,1.7,1.22h5.05c3.22,0,5.11,1.46,5.11,4.15Zm-3.34.42c0-.78-.54-1.26-2.24-1.26h-4.06c-1.73,0-2.48.48-2.48,1.34,0,1.07,1.37,1.76,4.42,1.76s4.36-.84,4.36-1.85Zm-7.38-11.95c0,1.52,1.16,2.51,2.75,2.51s2.72-.99,2.72-2.51-1.13-2.48-2.72-2.48-2.75.99-2.75,2.48Z"></path><path class="cls-2" d="m341.84,224.99c-1.88,0-3.11-.3-5.08-2.03-1.4,1.26-3.34,2.03-5.73,2.03-3.94,0-6.69-2-6.69-5.26-.03-2.03.99-4.18,4.3-5.59-1.67-2.03-2.15-3.14-2.15-4.69,0-2.36,1.79-4.78,5.5-4.78,3.37,0,5.43,1.73,5.43,4.45,0,2.24-1.04,4-4.18,5.41l1.67,1.94c.84.96,1.52,1.76,2.15,2.45.63-1.23.96-2.69.87-4.54l2.84.15c.06,2.36-.6,4.54-1.91,6.21,1.28,1.16,2.15,1.43,3.49,1.31l-.51,2.93Zm-10.54-2.84c1.34,0,2.57-.33,3.64-.96-.66-.69-1.37-1.46-2.18-2.39-.96-1.04-1.79-1.94-2.48-2.75-1.94,1.31-2.39,2.18-2.39,3.37,0,1.61,1.49,2.72,3.4,2.72Zm-1.22-12.6c0,.9.27,1.53,1.7,3.26,2.03-1.31,2.3-2.36,2.3-3.49,0-1.2-.78-1.76-2.03-1.76s-1.97.87-1.97,2Z"></path><path class="cls-2" d="m362.59,224.99c-5.85,0-9.5-3.82-9.5-10.16s3.67-10.15,9.44-10.15c4.03,0,7.05,1.67,8.15,5.11l-3.73,1.58c-.66-2.39-1.97-3.32-4.24-3.32-3.28,0-5.35,2.39-5.35,6.78s1.94,6.78,5.26,6.78c2.36,0,3.91-1.14,4.54-3.5l3.79,1.14c-1.2,3.85-4.36,5.73-8.36,5.73Z"></path><path class="cls-2" d="m388.56,217.23c0,4.87-2.84,7.77-7.65,7.77s-7.65-2.9-7.65-7.77,2.84-7.76,7.65-7.76,7.65,2.9,7.65,7.76Zm-11.2,0c0,3.17,1.26,4.72,3.56,4.72s3.55-1.55,3.55-4.72-1.25-4.72-3.55-4.72-3.56,1.55-3.56,4.72Z"></path><path class="cls-2" d="m406.35,214.9v9.79h-4.09v-8.6c0-2.57-1.11-3.4-2.66-3.4-1.73,0-3.43,1.13-3.43,4.12v7.88h-4.09v-14.93h3.67l.15,2.66c.99-2,2.83-2.96,5.08-2.96,3.11,0,5.38,1.82,5.38,5.44Z"></path><path class="cls-2" d="m420.68,223.77c-.96.78-2.51,1.23-4.09,1.23-2.96,0-4.99-1.23-4.99-4.51v-7.68h-2.72v-3.05h2.72v-3.43l4.09-1.14v4.57h4.84v3.05h-4.84v7.02c0,1.43.77,2.06,2.06,2.06.99,0,1.67-.3,2.3-.84l.63,2.72Z"></path><path class="cls-2" d="m433.31,209.79l-.51,3.58c-.42-.27-1.11-.45-1.88-.45-1.79,0-3.59,1.31-3.59,4.03v7.73h-4.09v-14.93h3.55l.27,2.93c.77-2.06,2.3-3.23,4.63-3.23.66,0,1.26.12,1.61.33Z"></path><path class="cls-2" d="m450.24,222.1l-.3,2.48c-.54.27-1.2.42-1.94.42-1.79,0-3.02-.63-3.44-2.24-.9,1.46-2.78,2.24-5.29,2.24-2.84,0-4.63-1.31-4.63-3.82,0-2.33,1.82-3.97,5.82-4.72l3.58-.69v-.72c0-1.58-.93-2.6-2.54-2.6-1.73,0-2.99.66-3.43,2.54l-3.26-1.37c.63-2.54,2.87-4.15,6.51-4.15,4.15,0,6.78,1.79,6.78,5.5v6.12c0,.78.33,1.14,1.1,1.14.36,0,.72-.03,1.02-.12Zm-6.18-2.27v-1.55l-3.19.72c-1.31.3-2,.78-2,1.76s.63,1.46,1.7,1.46c1.55,0,3.49-.81,3.49-2.39Z"></path><path class="cls-2" d="m466.33,213.85l-3.82,1.37c-.36-1.79-1.31-2.72-2.9-2.72-2.33,0-3.64,1.61-3.64,4.75s1.4,4.69,3.61,4.69c1.79,0,2.81-.96,3.11-2.66l3.7,1.19c-.63,2.66-2.96,4.51-6.75,4.51-4.96,0-7.76-2.87-7.76-7.77s2.84-7.76,7.62-7.76c4.21,0,6.12,1.94,6.84,4.39Z"></path><path class="cls-2" d="m479.88,223.77c-.96.78-2.51,1.23-4.09,1.23-2.96,0-4.99-1.23-4.99-4.51v-7.68h-2.72v-3.05h2.72v-3.43l4.09-1.14v4.57h4.84v3.05h-4.84v7.02c0,1.43.77,2.06,2.06,2.06.99,0,1.67-.3,2.3-.84l.63,2.72Z"></path><path class="cls-2" d="m481.96,205.43c0-1.46.84-2.21,2.54-2.21s2.54.75,2.54,2.21-.84,2.18-2.54,2.18-2.54-.72-2.54-2.18Zm4.57,19.26h-4.09v-14.93h4.09v14.93Z"></path><path class="cls-2" d="m505.13,214.9v9.79h-4.09v-8.6c0-2.57-1.11-3.4-2.66-3.4-1.73,0-3.43,1.13-3.43,4.12v7.88h-4.09v-14.93h3.67l.15,2.66c.99-2,2.83-2.96,5.08-2.96,3.11,0,5.38,1.82,5.38,5.44Z"></path><path class="cls-2" d="m523.52,226.04c0,3.26-3.34,5.08-8.03,5.08-5.13,0-7.35-1.49-7.35-3.67,0-1.31.9-2.39,2.72-2.84-1.23-.54-2.21-1.52-2.21-2.99s.96-2.51,2.39-3.02c-1.55-.87-2.36-2.27-2.36-4.06,0-3.14,2.63-5.08,6.87-5.08,1.11,0,2.12.12,2.99.39.48-2.21,1.85-3.76,4.54-3.64l.54,2.93c-1.88-.18-3.05.42-3.49,1.4,1.46.87,2.27,2.24,2.27,4,0,3.1-2.6,5.05-6.84,5.05-.99,0-1.88-.09-2.69-.27-.87.21-1.2.66-1.2,1.34,0,.8.66,1.22,1.7,1.22h5.05c3.23,0,5.11,1.46,5.11,4.15Zm-3.34.42c0-.78-.54-1.26-2.24-1.26h-4.06c-1.73,0-2.48.48-2.48,1.34,0,1.07,1.37,1.76,4.42,1.76s4.36-.84,4.36-1.85Zm-7.38-11.95c0,1.52,1.16,2.51,2.75,2.51s2.72-.99,2.72-2.51-1.13-2.48-2.72-2.48-2.75.99-2.75,2.48Z"></path><path class="cls-2" d="m544.12,224.99c-5.85,0-9.5-3.82-9.5-10.16s3.67-10.15,9.44-10.15c4.03,0,7.05,1.67,8.15,5.11l-3.73,1.58c-.66-2.39-1.97-3.32-4.24-3.32-3.28,0-5.35,2.39-5.35,6.78s1.94,6.78,5.26,6.78c2.36,0,3.91-1.14,4.54-3.5l3.79,1.14c-1.2,3.85-4.36,5.73-8.36,5.73Z"></path><path class="cls-2" d="m570.1,217.23c0,4.87-2.84,7.77-7.65,7.77s-7.65-2.9-7.65-7.77,2.84-7.76,7.65-7.76,7.65,2.9,7.65,7.76Zm-11.2,0c0,3.17,1.26,4.72,3.56,4.72s3.55-1.55,3.55-4.72-1.25-4.72-3.55-4.72-3.56,1.55-3.56,4.72Z"></path><path class="cls-2" d="m577.76,222.55c0,1.49-1.02,2.42-2.6,2.42s-2.6-.93-2.6-2.42.99-2.42,2.6-2.42,2.6.93,2.6,2.42Z"></path><path class="cls-2" d="m598.93,224.7h-4.75l-5.73-19.71h4.45l3.82,16.45,3.94-16.45h3.94l4,16.45,3.82-16.45h4.24l-5.73,19.71h-4.63l-2.75-10.75-.93-4.66h-.06l-.93,4.66-2.72,10.75Z"></path><path class="cls-2" d="m621.59,222.55c0,1.49-1.02,2.42-2.6,2.42s-2.6-.93-2.6-2.42.99-2.42,2.6-2.42,2.6.93,2.6,2.42Z"></path><path class="cls-2" d="m640.25,221.38v3.32h-14.52v-19.71h4.12v16.4h10.39Z"></path><path class="cls-2" d="m648.12,222.55c0,1.49-1.02,2.42-2.6,2.42s-2.6-.93-2.6-2.42.99-2.42,2.6-2.42,2.6.93,2.6,2.42Z"></path><path class="cls-2" d="m666.79,221.38v3.32h-14.52v-19.71h4.12v16.4h10.39Z"></path><path class="cls-2" d="m185.11,132.91v9.69h-36.73c-4.03,0-5.36,1.26-5.37,5.18v22.19c0,3.9,1.44,5.35,5.3,5.36h27.44s0-11.7,0-11.7h-24.63v-9.19s28.83.04,28.83.04c3.85.08,5.14,1.31,5.16,5.09l-.02,21.58c-.13,2.73-1.6,4.24-4.33,4.52l-32.53.02c-9.93-.02-14.08-8.18-14.06-13.17l-.02-26.45c-.09-6.03,4.56-12.9,12.49-13.11l38.48-.05Z"></path><path class="cls-2" d="m123.93,185.5h-10.5v-12.75l-31.78-.29v13.03h-9.43v-31.04c.04-12.63,9.91-21.27,21.32-21.57l24.62-.03c4.08.02,5.71,1.63,5.76,5.74v46.9Zm-42.28-22.42h31.78v-20.48l-19.65.02c-5.91.06-11.3,4.55-12.05,10.39-.42,3.26-.08,10.07-.08,10.07Z"></path><path class="cls-2" d="m295.35,175.33v10.35h-33.25c-9.41-.04-14.11-7.23-14.06-12.8l-.05-26.46c-.27-7.16,5.75-13.64,13.61-13.6h33.75v9.76h-32.65c-3.94,0-5.29,1.33-5.31,5.27v22.2c.02,3.83,1.49,5.26,5.38,5.27h32.57Z"></path><polygon class="cls-2" points="220.74 185.49 211.65 185.49 211.65 142.67 190.78 142.67 190.76 132.84 241.4 132.84 241.4 142.54 220.74 142.59 220.74 185.49"></polygon></svg>