<?xml version="1.0" encoding="UTF-8"?>
<svg id="Layer_1" xmlns="http://www.w3.org/2000/svg" viewBox="0 0 1080 428.14">
  <defs>
    <style>
      .cls-1 {
        fill: #fff;
      }
    </style>
  </defs>
  <g>
    <path class="cls-1" d="M228.29,203.06h-45.64l-8.02,15.8h-23.35l42.22-77.6h26.89l42.22,77.6h-26.3l-8.02-15.8ZM221.57,189.85l-16.16-31.6h-.12l-16.04,31.6h32.31Z"/>
    <path class="cls-1" d="M270.51,136.31h20.99v82.55h-20.99v-82.55Z"/>
    <path class="cls-1" d="M336.55,181.13c0-22.41,15.21-41.28,48.94-41.28s44.22,14.98,44.22,29.48c0,.35,0,.83-.12,1.65h-20.17v-.83c0-6.01-6.01-13.56-23.23-13.56s-26.42,10.73-26.42,24.65c0,13.09,7.08,24.06,26.06,24.06,16.16,0,22.29-8.61,22.29-14.15v-.35h-25v-12.03h47.64v40.1h-17.45c.12-3.42.24-10.02.24-15.68h-.24c-2.59,10.02-11.91,17.1-31.25,17.1-33.14,0-45.52-18.75-45.52-39.15Z"/>
    <path class="cls-1" d="M441.63,136.31h20.99v27.95c0,2.95-.12,9.43-.24,13.44h.12c3.66-11.2,12.85-18.28,31.02-18.28,22.17,0,29.95,10.26,29.95,24.77v34.67h-20.99v-29.01c0-8.14-4.13-14.15-18.51-14.15-11.67,0-21.35,4.95-21.35,16.63v26.53h-20.99v-82.55Z"/>
    <path class="cls-1" d="M532.91,201.53c0-9.55,6.01-16.98,22.41-16.98h32.67v-.83c0-7.9-4.72-11.09-18.04-11.09-12.26,0-15.33,3.42-15.33,6.84,0,.12,0,.47.12,1.06h-19.81c-.12-1.06-.12-1.89-.12-2.12,0-11.09,10.02-18.99,35.97-18.99s38.21,9.43,38.21,26.3v33.14h-20.99c.24-4.01.59-9.32.59-12.97h-.12c-2.36,8.37-9.32,14.15-27.71,14.15-21.46,0-27.83-10.14-27.83-18.51ZM587.99,195.87v-.47h-26.3c-7.08,0-10.14,1.18-10.14,4.95s4.01,6.49,15.09,6.49c14.15,0,21.35-6.13,21.35-10.97Z"/>
    <path class="cls-1" d="M619.01,160.61h20.99l-.35,16.86h.35c3.3-9.67,11.32-18.04,26.65-18.04,19.34,0,25.47,10.61,25.47,25.24,0,4.95-.35,9.79-.59,12.03h-19.46c.12-1.3.24-3.66.24-5.9,0-9.79-2.95-15.09-13.09-15.09-13.44,0-19.22,10.26-19.22,20.4v22.76h-20.99v-58.26Z"/>
    <path class="cls-1" d="M702.15,201.53c0-9.55,6.01-16.98,22.41-16.98h32.67v-.83c0-7.9-4.72-11.09-18.04-11.09-12.26,0-15.33,3.42-15.33,6.84,0,.12,0,.47.12,1.06h-19.81c-.12-1.06-.12-1.89-.12-2.12,0-11.09,10.02-18.99,35.97-18.99s38.21,9.43,38.21,26.3v33.14h-20.99c.24-4.01.59-9.32.59-12.97h-.12c-2.36,8.37-9.32,14.15-27.71,14.15-21.46,0-27.83-10.14-27.83-18.51ZM757.22,195.87v-.47h-26.3c-7.08,0-10.14,1.18-10.14,4.95s4.01,6.49,15.09,6.49c14.15,0,21.34-6.13,21.34-10.97Z"/>
    <path class="cls-1" d="M794.84,175.7h-10.73v-15.09h10.73v-4.72c0-15.09,12.62-22.88,30.66-22.88,8.14,0,15.21,1.42,18.4,2.48v14.39c-3.07-.71-9.08-1.77-14.5-1.77-9.91,0-13.56,3.07-13.56,9.2v3.3h29.25v15.09h-29.25v43.16h-20.99v-43.16Z"/>
    <path class="cls-1" d="M850.39,201.53c0-9.55,6.01-16.98,22.41-16.98h32.67v-.83c0-7.9-4.72-11.09-18.04-11.09-12.26,0-15.33,3.42-15.33,6.84,0,.12,0,.47.12,1.06h-19.81c-.12-1.06-.12-1.89-.12-2.12,0-11.09,10.02-18.99,35.97-18.99s38.21,9.43,38.21,26.3v33.14h-20.99c.23-4.01.59-9.32.59-12.97h-.12c-2.36,8.37-9.32,14.15-27.71,14.15-21.46,0-27.83-10.14-27.83-18.51ZM905.47,195.87v-.47h-26.3c-7.08,0-10.14,1.18-10.14,4.95s4.01,6.49,15.09,6.49c14.15,0,21.35-6.13,21.35-10.97Z"/>
  </g>
  <g>
    <path class="cls-1" d="M161.64,255.92h-10.36v-5.03h26.82v5.03h-10.36v28.39h-6.09v-28.39Z"/>
    <path class="cls-1" d="M180.53,259.22h5.69l-.2,7.21h.05c1.17-4.52,3.76-7.62,8.94-7.62,5.43,0,8.43,3.56,8.43,9.8,0,1.57-.15,3.61-.25,4.67h-5.18c.1-.97.2-2.23.2-3.4,0-4.22-1.63-6.2-4.98-6.2-4.32,0-7.01,3.66-7.01,9.65v10.97h-5.69v-25.09Z"/>
    <path class="cls-1" d="M207.6,277.1c0-3.81,2.69-6.81,9.4-6.81h9.29v-1.78c0-3.76-2.18-5.43-6.6-5.43-3.86,0-6.04,1.47-6.04,4.27,0,.15,0,.56.05.96h-5.23c-.05-.36-.1-1.01-.1-1.47,0-5.03,4.37-8.02,11.53-8.02,7.62,0,12.09,3.61,12.09,10.21v15.29h-5.69c.1-1.22.25-3.5.25-5.54h-.05c-.81,3.71-3.81,5.94-9.34,5.94s-9.55-2.74-9.55-7.62ZM226.29,274.2v-.46h-8.79c-3.25,0-4.67,1.12-4.67,3.1,0,2.29,2.03,3.61,5.49,3.61,4.93,0,7.97-2.39,7.97-6.25Z"/>
    <path class="cls-1" d="M236.65,271.61c0-7.57,4.72-12.8,12.19-12.8,4.72,0,7.67,1.88,8.68,4.82h.05v-14.53h5.69v35.2h-5.69c.1-1.47.15-3.66.25-6.1h-.1c-.97,3.96-4.11,6.5-9.24,6.5-7.26,0-11.83-5.28-11.83-13.1ZM257.57,272.02v-1.22c0-4.47-3.1-7.31-7.82-7.31s-7.47,3.35-7.47,8.13,2.9,8.43,7.36,8.43c4.77,0,7.92-3.15,7.92-8.02Z"/>
    <path class="cls-1" d="M269.25,250.69h5.84v5.59h-5.84v-5.59ZM269.3,259.22h5.69v25.09h-5.69v-25.09Z"/>
    <path class="cls-1" d="M280.93,259.22h5.69l-.2,6.7h.05c1.37-4.52,4.62-7.11,10.46-7.11,6.35,0,10.26,3.61,10.26,9.8v15.69h-5.69v-14.42c0-3.96-2.23-6.2-6.75-6.2-4.98,0-8.13,3-8.13,8.48v12.14h-5.69v-25.09Z"/>
    <path class="cls-1" d="M338.52,286.7c0,5.28-4.93,8.43-13.2,8.43s-13.56-2.59-13.56-7.11c0-2.54,1.88-4.42,4.88-4.57v-.05c-1.42-.97-2.18-2.34-2.18-4.11,0-2.13.96-3.61,2.34-4.27v-.1c-2.49-1.52-3.86-4.01-3.86-7.16,0-5.49,4.27-8.94,11.17-8.94,2.84,0,5.18.56,7.01,1.62l.05-.05c-.76-.81-1.22-1.78-1.22-2.84,0-2.03,1.93-3.3,4.93-3.3,1.22,0,1.93.1,2.54.25v4.01c-.41-.15-.96-.25-1.68-.25-1.68,0-2.49.71-2.49,2.08,0,.71.25,1.57.56,2.54.96,1.32,1.47,3,1.47,4.88,0,5.54-4.27,8.94-11.17,8.94-1.63,0-3.1-.2-4.42-.56-.3.36-.61,1.07-.61,1.93,0,1.42,1.02,2.29,2.84,2.29h8.13c5.38,0,8.48,2.34,8.48,6.35ZM332.83,287.36c0-1.68-1.27-2.59-3.96-2.59h-6.81c-2.84,0-4.67.86-4.67,2.79,0,2.39,3.05,3.56,7.87,3.56,5.33,0,7.57-1.52,7.57-3.76ZM318.36,267.75c0,3,2.18,4.88,5.74,4.88s5.74-1.88,5.74-4.88-2.18-4.88-5.74-4.88-5.74,1.88-5.74,4.88Z"/>
    <path class="cls-1" d="M386.51,279.79v4.77c-.25.05-.76.15-1.42.15-3.05,0-6.2-1.02-9.24-3.15-2.74,2.08-5.99,3.25-9.7,3.25-7.67,0-12.04-4.62-12.04-10.87,0-4.72,3-8.68,8.53-9.65-.86-2.29-1.32-4.22-1.32-5.69,0-4.93,3.2-8.23,8.94-8.23s8.63,3.25,8.63,7.77c0,4.77-3.35,8.18-9.09,8.74,1.63,2.74,3.96,5.59,6.25,7.82,1.88-2.59,3.3-5.79,4.22-9.24h5.08c-1.22,4.47-3.1,8.79-5.69,12.19,2.18,1.47,4.27,2.18,6.1,2.18.15,0,.41,0,.76-.05ZM366.5,280.09c2.13,0,4.01-.56,5.74-1.62-2.95-2.95-5.69-6.5-7.67-10.11h-.2c-2.95.46-4.62,2.64-4.62,5.49,0,3.61,2.54,6.25,6.75,6.25ZM366.96,258.81c0,1.62.41,3.1,1.12,4.67,4.06-.51,5.84-2.44,5.84-5.08,0-1.98-1.27-3.45-3.45-3.45s-3.5,1.52-3.5,3.86Z"/>
    <path class="cls-1" d="M401.69,267.65c0-10.67,7.11-17.27,17.17-17.27,8.79,0,15.03,5.23,15.03,12.95,0,.36-.05,1.02-.1,1.63h-5.38c.05-.46.05-.86.05-1.12,0-5.13-4.01-8.38-9.4-8.38-6.5,0-11.17,4.72-11.17,12.19s4.88,12.09,11.17,12.09c5.59,0,9.5-3.2,9.5-8.02v-.81h5.43v1.17c0,7.57-6.3,12.75-15.13,12.75-9.95,0-17.17-6.55-17.17-17.17Z"/>
    <path class="cls-1" d="M438.31,271.82c0-8.02,5.13-13,13.1-13s13.15,4.98,13.15,13-5.13,12.9-13.15,12.9-13.1-4.93-13.1-12.9ZM458.88,271.82c0-5.13-2.84-8.33-7.47-8.33s-7.42,3.2-7.42,8.33,2.79,8.23,7.42,8.23,7.47-3.15,7.47-8.23Z"/>
    <path class="cls-1" d="M469.44,259.22h5.69l-.2,6.7h.05c1.37-4.52,4.62-7.11,10.46-7.11,6.35,0,10.26,3.61,10.26,9.8v15.69h-5.69v-14.42c0-3.96-2.23-6.2-6.75-6.2-4.98,0-8.13,3-8.13,8.48v12.14h-5.69v-25.09Z"/>
    <path class="cls-1" d="M502.75,275.37v-11.53h-3.96v-4.62h3.2c.97,0,1.32-.51,1.47-1.93l.25-3.76h4.72v5.69h8.63v4.62h-8.63v11.22c0,3.25,1.22,4.88,4.67,4.88,1.42,0,3.05-.25,3.76-.46v4.52c-.76.25-2.49.61-4.57.61-6.86,0-9.55-3.71-9.55-9.24Z"/>
    <path class="cls-1" d="M521.59,259.22h5.69l-.2,7.21h.05c1.17-4.52,3.76-7.62,8.94-7.62,5.43,0,8.43,3.56,8.43,9.8,0,1.57-.15,3.61-.25,4.67h-5.18c.1-.97.2-2.23.2-3.4,0-4.22-1.63-6.2-4.98-6.2-4.32,0-7.01,3.66-7.01,9.65v10.97h-5.69v-25.09Z"/>
    <path class="cls-1" d="M548.66,277.1c0-3.81,2.69-6.81,9.4-6.81h9.3v-1.78c0-3.76-2.18-5.43-6.6-5.43-3.86,0-6.04,1.47-6.04,4.27,0,.15,0,.56.05.96h-5.23c-.05-.36-.1-1.01-.1-1.47,0-5.03,4.37-8.02,11.53-8.02,7.62,0,12.09,3.61,12.09,10.21v15.29h-5.69c.1-1.22.25-3.5.25-5.54h-.05c-.81,3.71-3.81,5.94-9.35,5.94s-9.55-2.74-9.55-7.62ZM567.35,274.2v-.46h-8.79c-3.25,0-4.67,1.12-4.67,3.1,0,2.29,2.03,3.61,5.49,3.61,4.93,0,7.97-2.39,7.97-6.25Z"/>
    <path class="cls-1" d="M577.71,271.77c0-8.02,5.03-12.95,12.6-12.95,7.01,0,11.58,4.06,11.58,10.72h-5.13c-.05-3.76-2.49-6.04-6.3-6.04-4.37,0-7.06,3.1-7.06,8.28s2.64,8.28,6.86,8.28,6.5-2.23,6.55-5.94h5.13c0,6.7-4.77,10.61-11.94,10.61s-12.29-4.93-12.29-12.95Z"/>
    <path class="cls-1" d="M608.23,275.37v-11.53h-3.96v-4.62h3.2c.96,0,1.32-.51,1.47-1.93l.25-3.76h4.72v5.69h8.63v4.62h-8.63v11.22c0,3.25,1.22,4.88,4.67,4.88,1.42,0,3.05-.25,3.76-.46v4.52c-.76.25-2.49.61-4.57.61-6.86,0-9.55-3.71-9.55-9.24Z"/>
    <path class="cls-1" d="M627.22,250.69h5.84v5.59h-5.84v-5.59ZM627.27,259.22h5.69v25.09h-5.69v-25.09Z"/>
    <path class="cls-1" d="M638.9,259.22h5.69l-.2,6.7h.05c1.37-4.52,4.62-7.11,10.46-7.11,6.35,0,10.26,3.61,10.26,9.8v15.69h-5.69v-14.42c0-3.96-2.23-6.2-6.76-6.2-4.98,0-8.13,3-8.13,8.48v12.14h-5.69v-25.09Z"/>
    <path class="cls-1" d="M696.49,286.7c0,5.28-4.93,8.43-13.2,8.43s-13.56-2.59-13.56-7.11c0-2.54,1.88-4.42,4.88-4.57v-.05c-1.42-.97-2.18-2.34-2.18-4.11,0-2.13.97-3.61,2.34-4.27v-.1c-2.49-1.52-3.86-4.01-3.86-7.16,0-5.49,4.27-8.94,11.17-8.94,2.84,0,5.18.56,7.01,1.62l.05-.05c-.76-.81-1.22-1.78-1.22-2.84,0-2.03,1.93-3.3,4.93-3.3,1.22,0,1.93.1,2.54.25v4.01c-.41-.15-.97-.25-1.68-.25-1.68,0-2.49.71-2.49,2.08,0,.71.25,1.57.56,2.54.97,1.32,1.47,3,1.47,4.88,0,5.54-4.27,8.94-11.17,8.94-1.63,0-3.1-.2-4.42-.56-.3.36-.61,1.07-.61,1.93,0,1.42,1.02,2.29,2.84,2.29h8.13c5.38,0,8.48,2.34,8.48,6.35ZM690.8,287.36c0-1.68-1.27-2.59-3.96-2.59h-6.81c-2.84,0-4.67.86-4.67,2.79,0,2.39,3.05,3.56,7.87,3.56,5.33,0,7.57-1.52,7.57-3.76ZM676.33,267.75c0,3,2.18,4.88,5.74,4.88s5.74-1.88,5.74-4.88-2.18-4.88-5.74-4.88-5.74,1.88-5.74,4.88Z"/>
    <path class="cls-1" d="M711.88,267.65c0-10.67,7.11-17.27,17.17-17.27,8.79,0,15.03,5.23,15.03,12.95,0,.36-.05,1.02-.1,1.63h-5.38c.05-.46.05-.86.05-1.12,0-5.13-4.01-8.38-9.4-8.38-6.5,0-11.17,4.72-11.17,12.19s4.88,12.09,11.17,12.09c5.59,0,9.5-3.2,9.5-8.02v-.81h5.43v1.17c0,7.57-6.3,12.75-15.13,12.75-9.96,0-17.17-6.55-17.17-17.17Z"/>
    <path class="cls-1" d="M748.49,271.82c0-8.02,5.13-13,13.1-13s13.15,4.98,13.15,13-5.13,12.9-13.15,12.9-13.1-4.93-13.1-12.9ZM769.06,271.82c0-5.13-2.84-8.33-7.47-8.33s-7.42,3.2-7.42,8.33,2.79,8.23,7.42,8.23,7.47-3.15,7.47-8.23Z"/>
    <path class="cls-1" d="M780.58,277.71h5.74v6.6h-5.74v-6.6Z"/>
    <path class="cls-1" d="M802.83,250.89h6.55l7.62,25.85h.15l7.41-25.65h6.1l7.31,25.65h.15l7.52-25.85h6.04l-10.51,33.42h-6.7l-7.11-24.63h-.15l-7.31,24.63h-6.6l-10.46-33.42Z"/>
    <path class="cls-1" d="M852.9,277.71h5.74v6.6h-5.74v-6.6Z"/>
    <path class="cls-1" d="M865.7,250.89h6.1v28.34h16.56v5.08h-22.65v-33.42Z"/>
    <path class="cls-1" d="M893.27,277.71h5.74v6.6h-5.74v-6.6Z"/>
    <path class="cls-1" d="M906.07,250.89h6.1v28.34h16.56v5.08h-22.65v-33.42Z"/>
  </g>
</svg>